<svg id="Layer_1" data-name="Layer 1" xmlns="http://www.w3.org/2000/svg" viewBox="-50 -50 612 612"><path d="M256,0Q362.11,0,436.9,75.1,512,149.89,512,256T436.9,436.9Q362.11,512,256,512T75.1,436.9Q0,362.11,0,256T75.1,75.1Q149.89,0,256,0ZM55.34,190.63a211.82,211.82,0,0,0,0,130.73h66a416,416,0,0,1,0-130.73Zm14.9,165.7q34.36,63.55,100.64,92.73a232.64,232.64,0,0,1-20.07-31.92,302.59,302.59,0,0,1-22.2-60.81ZM170.87,63.24Q104.59,92.43,70.54,155.37h58.07a304.36,304.36,0,0,1,22.2-60.51A198.45,198.45,0,0,1,170.87,63.24ZM151.72,190.63A390.59,390.59,0,0,0,145.94,256a390.48,390.48,0,0,0,5.78,65.37H241.1V190.63Zm82.7-143.51q-32.83,13.38-57.16,61.11-9.43,19.16-17.63,47.13H241.1V45.61a3.4,3.4,0,0,1-1.52.3h-1.82Zm3.34,419h1.82a5.12,5.12,0,0,0,1.52.3V356.33H159.62q8.21,28.28,17.63,47.43,24.32,47.74,57.16,61.11ZM274.24,45.91h-1.83a3.38,3.38,0,0,1-1.52-.3V155.37h81.48q-8.21-28-17.63-47.13-24.33-47.73-57.16-61.11Zm86,275.46A391.23,391.23,0,0,0,366.06,256a395,395,0,0,0-5.78-65.37H270.9V321.37Zm-82.7,143.51q32.84-13.39,57.16-61.11,9.73-19.16,17.63-47.43H270.9V466.39a5.1,5.1,0,0,0,1.52-.3h1.83ZM441.46,155.37q-34.06-62.94-100-92.12A212.61,212.61,0,0,1,361.2,94.86a295.22,295.22,0,0,1,22.2,60.51Zm-100,293.7q66-29.49,100-92.73H383.39q-8.52,33.74-22.2,60.81A226,226,0,0,1,341.43,449.06Zm49.25-258.43A412,412,0,0,1,395.86,256a415.71,415.71,0,0,1-5.17,65.37h66a211.89,211.89,0,0,0,0-130.73Z"/></svg>
